<svg xmlns="http://www.w3.org/2000/svg" viewBox="0 0 800 500" role="img" aria-label="">
<defs>
<linearGradient id="bg" x1="0" y1="0" x2="0.35" y2="1">
<stop offset="0" stop-color="#2c4536"/><stop offset="1" stop-color="#1b2a22"/>
</linearGradient>
<radialGradient id="glow" cx="0.5" cy="0.42" r="1.05">
<stop offset="0" stop-color="#cdae6c" stop-opacity="0.09"/><stop offset="0.5" stop-color="#cdae6c" stop-opacity="0.02"/><stop offset="1" stop-color="#101a14" stop-opacity="0.4"/>
</radialGradient>
<pattern id="lat" width="140" height="140" patternUnits="userSpaceOnUse">
<g fill="none" stroke="#f2f0eb" stroke-opacity="0.06">
<polygon points="70.0,4.0 80.3,45.1 116.7,23.3 94.9,59.7 136.0,70.0 94.9,80.3 116.7,116.7 80.3,94.9 70.0,136.0 59.7,94.9 23.3,116.7 45.1,80.3 4.0,70.0 45.1,59.7 23.3,23.3 59.7,45.1"/><circle cx="70" cy="70" r="34"/>
</g>
</pattern>
</defs>
<rect width="800" height="500" fill="url(#bg)"/>
<rect width="800" height="500" fill="url(#lat)"/>
<g fill="none" stroke="#cdae6c" stroke-width="2.5" stroke-linecap="round" stroke-linejoin="round" ><path d="M 60 400 Q 240 300 430 372 Q 610 436 740 368"/><path d="M 60 340 Q 300 240 520 320 Q 660 368 740 322"/></g><g fill="none" stroke="#f2f0eb" stroke-opacity="0.55" stroke-width="1.7" stroke-linecap="round"><circle cx="560" cy="176" r="44"/><line x1="498" y1="176" x2="480" y2="176"/><line x1="506" y1="145" x2="491" y2="136"/><line x1="529" y1="122" x2="520" y2="107"/><line x1="560" y1="114" x2="560" y2="96"/><line x1="591" y1="122" x2="600" y2="107"/><line x1="614" y1="145" x2="629" y2="136"/><line x1="622" y1="176" x2="640" y2="176"/></g><rect width="800" height="500" fill="url(#glow)"/>
</svg>